<?xml version="1.0" encoding="utf-8" ?>	<!-- Generator: Assembly 1.8 - http://assemblyapp.co -->	<svg version="1.1" xmlns="http://www.w3.org/2000/svg" xmlns:xlink="http://www.w3.org/1999/xlink" width="2048.00" height="2048.00" viewBox="0 0 2048.0 2048.0">		<rect x="0" y="0" width="2048.00" height="2048.00" fill="#ffffff" />		<g id="document" transform="matrix(1,0,0,1,1024.0,1024.0)">			<g>				<path d="M-5.40833,-406.612 L232.761,-168.442 C364.381,-36.8223 364.381,176.277 232.761,307.897 C101.141,439.517 -111.958,439.517 -243.578,307.897 C-375.198,176.277 -375.198,-36.8223 -243.578,-168.442 L-5.40833,-406.612 Z " fill="#ffa539" fill-opacity="1.00" />				<path d="M-5.81713,-234.634 L181.865,-46.9516 C285.585,56.7677 285.585,224.694 181.865,328.413 C78.1461,432.133 -89.7804,432.133 -193.5,328.413 C-297.219,224.694 -297.219,56.7677 -193.5,-46.9516 L-5.81713,-234.634 Z " fill="#f3804b" fill-opacity="1.00" />				<path d="M-7.40614,-110.836 L143.933,40.5036 C227.568,124.139 227.568,259.548 143.933,343.182 C60.2983,426.817 -75.1106,426.817 -158.746,343.182 C-242.381,259.548 -242.381,124.139 -158.746,40.5036 L-7.40614,-110.836 Z " fill="#ffc81f" fill-opacity="1.00" />				<path d="M-200.317,227.448 C-233.98,91.9322 -115.728,-29.7729 -22.5068,-132.488 L5.11421,-90.1938 L14.6089,-108.32 C134.588,4.75338 214.861,122.143 181.198,227.448 L141.493,104.016 L-155.433,104.016 L-200.317,227.448 Z " fill="#ffc81f" fill-opacity="1.00" />				<path d="M128.61,196.374 L-144.147,196.374 C-152.779,196.374 -158.821,203.279 -158.821,211.048 C-158.821,287.869 -90.6314,350.016 -7.76842,350.016 C75.9577,350.016 143.284,287.869 143.284,211.048 C143.284,203.279 137.242,196.374 128.61,196.374 Z " fill="#493823" fill-opacity="1.00" />				<path d="M119.116,196.374 L-133.789,196.374 C-133.789,197.237 -134.652,198.964 -134.652,199.827 L-134.652,215.364 C-134.652,222.269 -129.473,227.448 -122.568,227.448 L-107.031,227.448 L92.3577,227.448 L107.895,227.448 C114.8,227.448 119.979,222.269 119.979,215.364 L119.979,199.827 C119.979,198.964 119.979,197.237 119.116,196.374 Z " fill="#ffffff" fill-opacity="1.00" />				<path d="M-133.789,211.048 C-95.8103,206.732 -52.6525,204.143 -6.90525,204.143 C38.842,204.143 81.9999,206.732 119.979,211.048 L119.979,198.1 C119.979,197.237 119.979,195.511 119.116,194.648 L-133.789,194.648 C-133.789,195.511 -134.652,197.237 -134.652,198.1 L-133.789,211.048 Z " fill="#ecf1f2" fill-opacity="1.00" />				<path d="M44.8841,298.227 C44.8841,326.711 21.5789,350.016 -6.90528,350.016 C-35.3894,350.016 -58.6947,326.711 -58.6947,298.227 C-58.6947,269.742 -35.3894,246.437 -6.90528,246.437 C21.5789,245.574 44.8841,268.879 44.8841,298.227 Z " fill="#2f2417" fill-opacity="1.00" />				<path d="M-74.2315,336.205 C-54.3789,345.7 -31.9368,350.879 -7.76843,350.879 C16.3999,350.879 38.842,345.7 58.6946,336.205 L58.6946,323.258 C58.6946,316.353 53.5157,311.174 46.6104,311.174 L38.842,311.174 L-46.6105,311.174 L-62.1473,311.174 C-69.0525,311.174 -74.2315,316.353 -74.2315,323.258 L-74.2315,336.205 Z " fill="#ffffff" fill-opacity="1.00" />				<path d="M58.6946,336.205 C43.1578,341.384 18.9894,343.974 -7.76841,343.974 C-34.5263,343.974 -58.6946,340.521 -74.2314,336.205 C-54.3789,345.7 -31.9368,350.879 -7.76841,350.879 C16.4,350.879 38.842,345.7 58.6946,336.205 Z " fill="#ecf1f2" fill-opacity="1.00" />				<path d="M-17.2631,280.963 C-17.2631,286.142 -12.9473,289.595 -8.63156,289.595 C-3.45263,289.595 3.73035e-14,285.279 3.73035e-14,280.963 C3.73035e-14,280.1 3.73035e-14,278.374 3.73035e-14,278.374 L-8.63156,246.437 L-17.2631,278.374 C-16.4,279.237 -17.2631,280.1 -17.2631,280.963 Z " fill="#493823" fill-opacity="1.00" />				<path d="M78.5472,250.753 C67.3262,250.753 57.8315,241.258 57.8315,230.037 C57.8315,218.816 67.3262,209.321 78.5472,209.321 C89.7682,209.321 99.263,218.816 99.263,230.037 C99.263,242.121 90.6314,250.753 78.5472,250.753 Z " fill="#493823" fill-opacity="1.00" />				<path d="M-79.5507,146.715 C-79.5507,161.071 -91.2153,172.736 -105.572,172.736 C-119.928,172.736 -131.593,161.071 -131.593,146.715 C-131.593,132.358 -119.928,120.694 -105.572,120.694 C-91.2153,120.694 -79.5507,132.358 -79.5507,146.715 Z " fill="#473823" fill-opacity="1.00" />				<path d="M62.1472,161.848 L110.484,161.848 C111.347,160.122 111.347,157.532 111.347,155.806 C111.347,141.995 100.126,130.774 86.3156,130.774 C72.5051,130.774 61.2841,141.995 61.2841,155.806 C61.2841,157.532 61.2841,160.122 62.1472,161.848 Z " fill="#473823" fill-opacity="1.00" />			</g>		</g>	</svg>